<?xml version="1.0" standalone="no"?>
<!DOCTYPE svg PUBLIC "-//W3C//DTD SVG 20010904//EN"
 "http://www.w3.org/TR/2001/REC-SVG-20010904/DTD/svg10.dtd">
<svg version="1.0" xmlns="http://www.w3.org/2000/svg"
 width="400.000000pt" height="400.000000pt" viewBox="0 0 400.000000 400.000000"
 preserveAspectRatio="xMidYMid meet">
<metadata>
Created by potrace 1.14, written by Peter Selinger 2001-2017
</metadata>
<g transform="translate(0.000000,400.000000) scale(0.100000,-0.100000)"
fill="#000000" stroke="none">
<path d="M1859 3766 c-2 -2 -35 -7 -73 -10 -38 -3 -78 -8 -90 -11 -11 -2 -37
-7 -56 -9 -106 -15 -332 -94 -470 -164 -366 -186 -639 -466 -816 -837 -109
-230 -161 -465 -162 -730 0 -133 19 -308 42 -383 3 -9 7 -28 10 -42 2 -14 18
-68 36 -120 208 -624 767 -1093 1425 -1196 219 -35 508 -24 720 26 363 86 717
296 943 561 86 100 90 106 154 201 126 189 228 444 263 656 4 23 9 54 12 70 2
15 6 104 7 197 3 154 -7 286 -30 375 -3 14 -8 36 -10 50 -7 38 -54 191 -69
225 -7 17 -23 55 -36 85 -101 242 -321 516 -559 697 -233 176 -565 311 -860
348 -59 8 -375 16 -381 11z"/>
</g>
</svg>
